<svg width="588" height="50" viewBox="0 0 588 50" fill="none" xmlns="http://www.w3.org/2000/svg">
<path d="M17.63 0.630998C20.804 0.630998 23.518 1.091 25.772 2.011C28.026 2.885 30.211 4.265 32.327 6.151L28.739 10.153C26.945 8.727 25.174 7.692 23.426 7.048C21.724 6.358 19.884 6.013 17.906 6.013C15.422 6.013 13.375 6.588 11.765 7.738C10.155 8.888 9.35 10.567 9.35 12.775C9.35 14.155 9.626 15.328 10.178 16.294C10.73 17.214 11.742 18.065 13.214 18.847C14.732 19.629 16.917 20.457 19.769 21.331C22.759 22.251 25.243 23.24 27.221 24.298C29.199 25.356 30.786 26.828 31.982 28.714C33.224 30.554 33.845 32.9 33.845 35.752C33.845 38.512 33.155 40.95 31.775 43.066C30.441 45.182 28.486 46.838 25.91 48.034C23.38 49.23 20.367 49.828 16.871 49.828C10.293 49.828 4.911 47.781 0.725 43.687L4.313 39.685C6.245 41.249 8.2 42.445 10.178 43.273C12.156 44.055 14.364 44.446 16.802 44.446C19.746 44.446 22.184 43.733 24.116 42.307C26.048 40.835 27.014 38.719 27.014 35.959C27.014 34.395 26.715 33.107 26.117 32.095C25.519 31.037 24.484 30.094 23.012 29.266C21.586 28.438 19.493 27.61 16.733 26.782C11.857 25.31 8.292 23.539 6.038 21.469C3.784 19.399 2.657 16.593 2.657 13.051C2.657 10.659 3.278 8.52 4.52 6.634C5.808 4.748 7.579 3.276 9.833 2.218C12.133 1.16 14.732 0.630998 17.63 0.630998ZM83.1746 49V26.713H63.1646V49H56.6096V1.459H63.1646V21.331H83.1746V1.459H89.7296V49H83.1746ZM133.592 0.630998C137.594 0.630998 141.09 1.597 144.08 3.529C147.116 5.415 149.462 8.198 151.118 11.878C152.82 15.558 153.671 20.02 153.671 25.264C153.671 30.416 152.82 34.832 151.118 38.512C149.462 42.192 147.116 44.998 144.08 46.93C141.09 48.862 137.594 49.828 133.592 49.828C129.59 49.828 126.071 48.885 123.035 46.999C120.045 45.113 117.699 42.33 115.997 38.65C114.341 34.97 113.513 30.531 113.513 25.333C113.513 20.227 114.341 15.811 115.997 12.085C117.699 8.359 120.068 5.53 123.104 3.598C126.14 1.62 129.636 0.630998 133.592 0.630998ZM133.592 6.013C129.452 6.013 126.232 7.577 123.932 10.705C121.632 13.833 120.482 18.709 120.482 25.333C120.482 31.911 121.632 36.741 123.932 39.823C126.278 42.905 129.498 44.446 133.592 44.446C142.332 44.446 146.702 38.052 146.702 25.264C146.702 12.43 142.332 6.013 133.592 6.013ZM189.991 1.459C195.879 1.459 200.433 2.701 203.653 5.185C206.873 7.623 208.483 11.28 208.483 16.156C208.483 21.354 206.804 25.218 203.446 27.748C200.088 30.278 195.626 31.543 190.06 31.543H184.057V49H177.502V1.459H189.991ZM189.784 26.368C193.602 26.368 196.5 25.632 198.478 24.16C200.502 22.688 201.514 20.043 201.514 16.225C201.514 12.821 200.502 10.36 198.478 8.842C196.5 7.324 193.648 6.565 189.922 6.565H184.057V26.368H189.784ZM256.442 1.459L255.683 6.703H237.26V22.228H253.268V27.472H237.26V43.756H256.994V49H230.705V1.459H256.442ZM294.679 28.852H287.296V49H280.741V1.459H293.23C299.164 1.459 303.649 2.586 306.685 4.84C309.767 7.094 311.308 10.452 311.308 14.914C311.308 18.226 310.457 20.917 308.755 22.987C307.053 25.057 304.477 26.621 301.027 27.679L313.861 49H306.064L294.679 28.852ZM293.92 23.815C297.37 23.815 299.969 23.125 301.717 21.745C303.465 20.319 304.339 18.042 304.339 14.914C304.339 11.97 303.442 9.854 301.648 8.566C299.9 7.232 297.071 6.565 293.161 6.565H287.296V23.815H293.92ZM346.887 0.630998C350.061 0.630998 352.775 1.091 355.029 2.011C357.283 2.885 359.468 4.265 361.584 6.151L357.996 10.153C356.202 8.727 354.431 7.692 352.683 7.048C350.981 6.358 349.141 6.013 347.163 6.013C344.679 6.013 342.632 6.588 341.022 7.738C339.412 8.888 338.607 10.567 338.607 12.775C338.607 14.155 338.883 15.328 339.435 16.294C339.987 17.214 340.999 18.065 342.471 18.847C343.989 19.629 346.174 20.457 349.026 21.331C352.016 22.251 354.5 23.24 356.478 24.298C358.456 25.356 360.043 26.828 361.239 28.714C362.481 30.554 363.102 32.9 363.102 35.752C363.102 38.512 362.412 40.95 361.032 43.066C359.698 45.182 357.743 46.838 355.167 48.034C352.637 49.23 349.624 49.828 346.128 49.828C339.55 49.828 334.168 47.781 329.982 43.687L333.57 39.685C335.502 41.249 337.457 42.445 339.435 43.273C341.413 44.055 343.621 44.446 346.059 44.446C349.003 44.446 351.441 43.733 353.373 42.307C355.305 40.835 356.271 38.719 356.271 35.959C356.271 34.395 355.972 33.107 355.374 32.095C354.776 31.037 353.741 30.094 352.269 29.266C350.843 28.438 348.75 27.61 345.99 26.782C341.114 25.31 337.549 23.539 335.295 21.469C333.041 19.399 331.914 16.593 331.914 13.051C331.914 10.659 332.535 8.52 333.777 6.634C335.065 4.748 336.836 3.276 339.09 2.218C341.39 1.16 343.989 0.630998 346.887 0.630998ZM396.788 0.630998C399.962 0.630998 402.676 1.091 404.93 2.011C407.184 2.885 409.369 4.265 411.485 6.151L407.897 10.153C406.103 8.727 404.332 7.692 402.584 7.048C400.882 6.358 399.042 6.013 397.064 6.013C394.58 6.013 392.533 6.588 390.923 7.738C389.313 8.888 388.508 10.567 388.508 12.775C388.508 14.155 388.784 15.328 389.336 16.294C389.888 17.214 390.9 18.065 392.372 18.847C393.89 19.629 396.075 20.457 398.927 21.331C401.917 22.251 404.401 23.24 406.379 24.298C408.357 25.356 409.944 26.828 411.14 28.714C412.382 30.554 413.003 32.9 413.003 35.752C413.003 38.512 412.313 40.95 410.933 43.066C409.599 45.182 407.644 46.838 405.068 48.034C402.538 49.23 399.525 49.828 396.029 49.828C389.451 49.828 384.069 47.781 379.883 43.687L383.471 39.685C385.403 41.249 387.358 42.445 389.336 43.273C391.314 44.055 393.522 44.446 395.96 44.446C398.904 44.446 401.342 43.733 403.274 42.307C405.206 40.835 406.172 38.719 406.172 35.959C406.172 34.395 405.873 33.107 405.275 32.095C404.677 31.037 403.642 30.094 402.17 29.266C400.744 28.438 398.651 27.61 395.891 26.782C391.015 25.31 387.45 23.539 385.196 21.469C382.942 19.399 381.815 16.593 381.815 13.051C381.815 10.659 382.436 8.52 383.678 6.634C384.966 4.748 386.737 3.276 388.991 2.218C391.291 1.16 393.89 0.630998 396.788 0.630998ZM462.332 49V26.713H442.322V49H435.767V1.459H442.322V21.331H462.332V1.459H468.887V49H462.332ZM512.75 0.630998C516.752 0.630998 520.248 1.597 523.238 3.529C526.274 5.415 528.62 8.198 530.276 11.878C531.978 15.558 532.829 20.02 532.829 25.264C532.829 30.416 531.978 34.832 530.276 38.512C528.62 42.192 526.274 44.998 523.238 46.93C520.248 48.862 516.752 49.828 512.75 49.828C508.748 49.828 505.229 48.885 502.193 46.999C499.203 45.113 496.857 42.33 495.155 38.65C493.499 34.97 492.671 30.531 492.671 25.333C492.671 20.227 493.499 15.811 495.155 12.085C496.857 8.359 499.226 5.53 502.262 3.598C505.298 1.62 508.794 0.630998 512.75 0.630998ZM512.75 6.013C508.61 6.013 505.39 7.577 503.09 10.705C500.79 13.833 499.64 18.709 499.64 25.333C499.64 31.911 500.79 36.741 503.09 39.823C505.436 42.905 508.656 44.446 512.75 44.446C521.49 44.446 525.86 38.052 525.86 25.264C525.86 12.43 521.49 6.013 512.75 6.013ZM569.149 1.459C575.037 1.459 579.591 2.701 582.811 5.185C586.031 7.623 587.641 11.28 587.641 16.156C587.641 21.354 585.962 25.218 582.604 27.748C579.246 30.278 574.784 31.543 569.218 31.543H563.215V49H556.66V1.459H569.149ZM568.942 26.368C572.76 26.368 575.658 25.632 577.636 24.16C579.66 22.688 580.672 20.043 580.672 16.225C580.672 12.821 579.66 10.36 577.636 8.842C575.658 7.324 572.806 6.565 569.08 6.565H563.215V26.368H568.942Z" fill="black"/>
</svg>
